<?xml version="1.0" encoding="UTF-8" standalone="no"?>
<!DOCTYPE svg PUBLIC "-//W3C//DTD SVG 1.0//EN" "http://www.w3.org/TR/2001/PR-SVG-20010719/DTD/svg10.dtd">
<svg width="47cm" height="19cm" viewBox="253 88 921 365" xmlns="http://www.w3.org/2000/svg" xmlns:xlink="http://www.w3.org/1999/xlink">
  <text font-size="45.1556" style="fill: #000000;text-anchor:middle;font-family:sans-serif;font-style:normal;font-weight:700" x="500" y="200">
    <tspan x="500" y="200">instanceName</tspan>
  </text>
  <g>
    <line style="fill: none; fill-opacity:0; stroke-width: 2; stroke: #000000" x1="780" y1="109.736" x2="780" y2="190.264"/>
    <polygon style="fill: #000000" points="780,102.236 785,112.236 780,109.736 775,112.236 "/>
    <polygon style="fill: none; fill-opacity:0; stroke-width: 2; stroke: #000000" points="780,102.236 785,112.236 780,109.736 775,112.236 "/>
    <polygon style="fill: #000000" points="780,197.764 775,187.764 780,190.264 785,187.764 "/>
    <polygon style="fill: none; fill-opacity:0; stroke-width: 2; stroke: #000000" points="780,197.764 775,187.764 780,190.264 785,187.764 "/>
  </g>
  <text font-size="39.5111" style="fill: #000000;text-anchor:middle;font-family:sans-serif;font-style:normal;font-weight:normal" x="440" y="300">
    <tspan x="440" y="300">typeName</tspan>
  </text>
  <rect style="fill: none; fill-opacity:0; stroke-width: 2; stroke: #000000" x="300" y="100" width="400" height="300"/>
  <text font-size="12.8" style="fill: #000000;text-anchor:end;font-family:sans-serif;font-style:normal;font-weight:normal" x="300" y="100">
    <tspan x="300" y="100">x=0; y=0</tspan>
  </text>
  <g>
    <line style="fill: none; fill-opacity:0; stroke-width: 2; stroke: #000000" x1="760" y1="109.736" x2="760" y2="290.264"/>
    <polygon style="fill: #000000" points="760,102.236 765,112.236 760,109.736 755,112.236 "/>
    <polygon style="fill: none; fill-opacity:0; stroke-width: 2; stroke: #000000" points="760,102.236 765,112.236 760,109.736 755,112.236 "/>
    <polygon style="fill: #000000" points="760,297.764 755,287.764 760,290.264 765,287.764 "/>
    <polygon style="fill: none; fill-opacity:0; stroke-width: 2; stroke: #000000" points="760,297.764 755,287.764 760,290.264 765,287.764 "/>
  </g>
  <text font-size="12.8" style="fill: #000000;text-anchor:start;font-family:sans-serif;font-style:normal;font-weight:normal" x="780" y="160.15">
    <tspan x="780" y="160.15">yBaselineInstanceName =</tspan>
    <tspan x="780" y="176.15">5 + ascentInstanceName</tspan>
  </text>
  <text font-size="12.8" style="fill: #000000;text-anchor:start;font-family:sans-serif;font-style:normal;font-weight:normal" x="760" y="260.15">
    <tspan x="760" y="260.15">yBaselineTypeName = </tspan>
    <tspan x="760" y="276.15">yBaselineInstanceName + descentInstanceName + 5 + ascentTypeName</tspan>
  </text>
  <g>
    <line style="fill: none; fill-opacity:0; stroke-width: 2; stroke: #000000" x1="740" y1="109.736" x2="740" y2="390.264"/>
    <polygon style="fill: #000000" points="740,102.236 745,112.236 740,109.736 735,112.236 "/>
    <polygon style="fill: none; fill-opacity:0; stroke-width: 2; stroke: #000000" points="740,102.236 745,112.236 740,109.736 735,112.236 "/>
    <polygon style="fill: #000000" points="740,397.764 735,387.764 740,390.264 745,387.764 "/>
    <polygon style="fill: none; fill-opacity:0; stroke-width: 2; stroke: #000000" points="740,397.764 735,387.764 740,390.264 745,387.764 "/>
  </g>
  <text font-size="12.8" style="fill: #000000;text-anchor:start;font-family:sans-serif;font-style:normal;font-weight:normal" x="740" y="360.15">
    <tspan x="740" y="360.15">yBlockHeader = </tspan>
    <tspan x="740" y="376.15">yBaselineTypeName + descentTypeName + 5</tspan>
  </text>
  <text font-size="33.8667" style="fill: #000000;text-anchor:middle;font-family:sans-serif;font-style:italic;font-weight:normal" x="620" y="300">
    <tspan x="620" y="300">tId+iId</tspan>
  </text>
  <g>
    <line style="fill: none; fill-opacity:0; stroke-width: 2; stroke: #000000" x1="630.264" y1="420" x2="349.736" y2="420"/>
    <polygon style="fill: #000000" points="637.764,420 627.764,425 630.264,420 627.764,415 "/>
    <polygon style="fill: none; fill-opacity:0; stroke-width: 2; stroke: #000000" points="637.764,420 627.764,425 630.264,420 627.764,415 "/>
    <polygon style="fill: #000000" points="342.236,420 352.236,415 349.736,420 352.236,425 "/>
    <polygon style="fill: none; fill-opacity:0; stroke-width: 2; stroke: #000000" points="342.236,420 352.236,415 349.736,420 352.236,425 "/>
  </g>
  <text font-size="12.8" style="fill: #000000;text-anchor:middle;font-family:sans-serif;font-style:normal;font-weight:normal" x="490" y="432.275">
    <tspan x="490" y="432.275">widthHeader2ndLine =</tspan>
    <tspan x="490" y="448.275">widthTypeName + 10 + widthId</tspan>
  </text>
</svg>
